<svg xmlns="http://www.w3.org/2000/svg" viewBox="0 0 140.34 246.68"><title>Asset 15</title><g id="Layer_2" data-name="Layer 2"><g id="Layer_1-2" data-name="Layer 1"><path d="M39.65,191.87c12,0,17.11,7,17.11,23.27v26.67H0V216c0-15.16,4.62-21.73,15.49-21.73,8.67,0,11.27,5.84,11.27,5.84S30.25,191.87,39.65,191.87ZM22.46,223.65v-4.86c0-3.73-1.86-5.36-6.08-5.36-3.65,0-5.19,1.63-5.19,5.36v4.86ZM39.65,211c-4.78,0-6.89,2-6.89,6.89v5.76H45.57v-5.76C45.57,213.11,43.79,211,39.65,211Z"/><path d="M40.62,172.48c5.44,0,7.55-2.59,7.55-6.41,0-3.24-1.38-4.94-4.46-5.51V145.15c9.73,1.71,13.86,7.95,13.86,20.92,0,15.82-6.32,22.55-21.08,22.55s-21.08-6.73-21.08-22.55,6.32-22.54,21-22.54h4.21ZM32,172.4V160c-5,0-7.22,2-7.22,6.33C24.81,170.13,27.57,172.4,32,172.4Z"/><path d="M18.73,123.5c-2.27-2.59-3.32-6.24-3.32-11.11,0-11.51,5.83-16.46,19.46-16.46H56.76v16.38H34.87c-5.84,0-8.27,1.46-8.27,4.7s2.51,4.55,8.27,4.55H56.76v16.29H16.22V125.2l2.51-1.62Z"/><path d="M18.73,74.28c-2.27-2.6-3.32-6.24-3.32-11.11,0-11.51,5.83-16.46,19.46-16.46H56.76V63.09H34.87c-5.84,0-8.27,1.46-8.27,4.7s2.51,4.54,8.27,4.54H56.76v16.3H16.22V76l2.51-1.62Z"/><path d="M55.71,27.73,16.22,45.08V29.68L37,21.89,16.22,15.41V0l40,13.87C66.81,17.51,71.36,22.06,71.36,29V39.16H62V33.49c0-2.6-1.54-4.22-5.11-5.35Z"/><path d="M139.53,215.06v24.32H114.07v7.3h-10.3v-7.3h-21V215.06c0-20.92,8.52-29.84,28.38-29.84S139.53,194.14,139.53,215.06Zm-44.76,6.16h9v-9.73h10.3v9.73h13.46V216c0-8.11-5-11.68-16.38-11.68S94.77,207.76,94.77,216Z"/><path d="M94.94,145v9.89l-5.36,4.55,5.36,4.62v9.81l-12.17-6.24v-16.3Zm45.4,20.68c0,10.86-3.89,15.49-13,15.49-9.65,0-13.79-6.17-13.79-20.68V155.7H112c-3.65,0-5.19,1.21-5.19,4.21s1.3,4.22,4.38,4.22v15.41c-9.08,0-13-6-13-20.11s4.62-20.11,15.49-20.11h25.86V152l-2.75,1.86C139.21,156.51,140.34,160.4,140.34,165.67ZM122,158.94c0,3.16.4,5.92,4.38,5.92,2.75,0,3.56-1.14,3.56-3.81,0-4.22-2.67-5.35-6.48-5.35H122Z"/><path d="M140.34,116.45c0,11.51-5.84,16.38-19.46,16.38H99v-16.3h21.89c5.84,0,8.27-1.46,8.27-4.7s-2.59-4.46-8.59-4.46H99V91h40.54v12.65l-2.51,1.7C139.29,107.93,140.34,111.58,140.34,116.45Z"/></g></g></svg>