<svg xmlns="http://www.w3.org/2000/svg" viewBox="0 0 210.46 49.5"><defs><style>.cls-1{fill:#fff;}</style></defs><title>Asset 12</title><g id="Layer_2" data-name="Layer 2"><g id="Layer_1-2" data-name="Layer 1"><path class="cls-1" d="M56.52,49.23l-1.44-2.42c-2.79-4.67-5.59-9.33-8.36-14a12.58,12.58,0,0,0-4.51-4.54A22.82,22.82,0,0,0,33,25.43c-.77-.09-1.54-.12-2.31-.16-.36,0-.72,0-1.1,0l.08.17,7.77,13.19a.51.51,0,0,1,0,.49,16.06,16.06,0,0,1-3.77,5.66,20.27,20.27,0,0,1-6,4.08c-.41.19-.83.36-1.26.55H56.62Z"/><path class="cls-1" d="M18.91,35.8c.27.34.57.66.86,1a.77.77,0,0,0,.11-.15Q24,30.07,28.17,23.47a.59.59,0,0,1,.55-.31,22.17,22.17,0,0,1,3.26.13,23.73,23.73,0,0,1,3.55.71,23.41,23.41,0,0,1,7.12,3.37c.53.37,1,.77,1.6,1.18-.08-.12-.14-.2-.19-.29l-4.24-7.07,0,0L28.4,2.12,16.34,22.26h0l0,.07a15.48,15.48,0,0,0-.63,3.31A13.88,13.88,0,0,0,16,29.76,14.86,14.86,0,0,0,18.91,35.8Z"/><path class="cls-1" d="M34.82,39.61c.11-.22.2-.45.31-.7l-.2,0-1.7,0-6.2,0H24.45l-5.8,0a.34.34,0,0,1-.24-.09,19,19,0,0,1-2.75-4.44,14.86,14.86,0,0,1-1.22-4.52,14.43,14.43,0,0,1,.08-2L14.83,25c0-.13.07-.26.11-.4l-.08.14v-.07L0,49.5l13.53-.1h8.58c.45,0,.89,0,1.34-.07a7.82,7.82,0,0,0,2.14-.48A12.94,12.94,0,0,0,30.19,46,21,21,0,0,0,34.82,39.61Z"/><path class="cls-1" d="M.7,26.16l0,0-.29-.32c.27-.07.53,0,.77-.06v-.06H.42l.31-.34,0,0c-.2.09-.31.28-.48.43C.4,25.89.5,26.08.7,26.16Z"/><path class="cls-1" d="M56.32,25.79l-.31.34,0,0a2.16,2.16,0,0,0,.47-.44c-.17-.14-.27-.34-.47-.41l0,0,.3.33c-.27,0-.53,0-.78,0v.08Z"/><path class="cls-1" d="M87.1,20.69c.09.21.3.33.67.36v.28H80.53v-.28c.54-.06.76-.3.64-.73L79.28,16H68.87l-1.82,4.17c-.21.55,0,.85.58.91v.28H60.75v-.28a.74.74,0,0,0,.67-.36L70.15.88c.15-.33,0-.54-.42-.6V0h9.15V.28c-.48,0-.64.3-.42.76Zm-13-17.1-3.5,8.22h7Z"/><path class="cls-1" d="M88,1.28c0-.64-.18-.91-.82-1V0H94V.28c-.64.09-.83.36-.83,1V12.17c0,3.53,2.19,5.11,5.63,5.11s5.69-1.58,5.66-5.11V1.28c0-.64-.18-.91-.82-1V0h6.78V.28c-.6.09-.79.36-.79,1V12.35a8.21,8.21,0,0,1-3,6.94,12.24,12.24,0,0,1-7.82,2.4A12.17,12.17,0,0,1,91,19.29a8.21,8.21,0,0,1-3-6.94Z"/><path class="cls-1" d="M135.23,20.63a1,1,0,0,0,.76.42v.28h-7.45v-.28c.58-.06.76-.3.55-.69l-4.69-7.09h-5.6v6.78c0,.64.18.91.82,1v.28h-6.81v-.28c.64-.09.82-.36.82-1V1.28c0-.64-.18-.91-.82-1V0h13.36a9.14,9.14,0,0,1,6.26,2,6,6,0,0,1,2.31,4.74,6.39,6.39,0,0,1-4.83,6.06ZM118.8,4.29V9.1h6.88c2.31,0,3.59-.91,3.59-2.41s-1.28-2.43-3.59-2.4Z"/><path class="cls-1" d="M162.4,20.69c.09.21.31.33.67.36v.28h-7.24v-.28c.55-.06.76-.3.64-.73L154.58,16h-10.4l-1.83,4.17c-.21.55,0,.85.58.91v.28h-6.88v-.28a.74.74,0,0,0,.67-.36L145.45.88c.16-.33,0-.54-.42-.6V0h9.16V.28c-.49,0-.64.3-.43.76Zm-13-17.1-3.5,8.22h7Z"/><path class="cls-1" d="M62.87,44.6a10.14,10.14,0,0,1-3.5-8,10.11,10.11,0,0,1,3.47-8,13.5,13.5,0,0,1,9.16-3,18.53,18.53,0,0,1,8.67,2c.3.15.58,0,.79-.3l.28.12-2.41,5.41-.24-.12a.8.8,0,0,0-.4-1A11.08,11.08,0,0,0,72.43,30,8.24,8.24,0,0,0,67,31.76a5.89,5.89,0,0,0-2.13,4.81A6,6,0,0,0,67,41.4a8.41,8.41,0,0,0,5.48,1.8,11.57,11.57,0,0,0,6.39-1.7.85.85,0,0,0,.33-1l.27-.09,2.38,5.42-.25.12c-.24-.34-.48-.43-.76-.34a18,18,0,0,1-8.82,2A13.6,13.6,0,0,1,62.87,44.6Z"/><path class="cls-1" d="M108.72,46.61c.09.21.31.33.67.36v.28h-7.24V47c.55-.06.76-.3.64-.73l-1.89-4.35H90.5l-1.83,4.17c-.21.55,0,.85.58.91v.28H82.38V47a.73.73,0,0,0,.66-.36L91.78,26.8c.15-.33,0-.55-.43-.61v-.27h9.16v.27c-.49,0-.64.31-.43.76Zm-13-17.1-3.5,8.21h7Z"/><path class="cls-1" d="M110.67,47.25V47c.64-.09.82-.36.82-1V27.2c0-.64-.18-.92-.82-1v-.27h13.39a9.26,9.26,0,0,1,6.3,1.94,6,6,0,0,1,2.31,4.75,5.89,5.89,0,0,1-2.31,4.72,9.56,9.56,0,0,1-6.3,1.85h-7.4V46c0,.64.19.91.83,1v.28Zm6-12.24h6.91c2.31,0,3.59-.91,3.59-2.4s-1.28-2.43-3.59-2.4h-6.91Z"/><path class="cls-1" d="M134.55,47.25V47c.64-.09.83-.36.83-1V27.2c0-.64-.19-.92-.83-1v-.27h6.82v.27c-.64.09-.82.37-.82,1V46c0,.64.18.91.82,1v.28Z"/><path class="cls-1" d="M150.56,47.25V47c.64-.09.79-.36.79-1V30.24h-7c-.64,0-.91.18-1,.82H143V25.92h21.82v5.14h-.28c-.09-.64-.36-.82-1-.82h-7.06V46c0,.64.18.91.82,1v.28Z"/><path class="cls-1" d="M188.13,46.61c.09.21.31.33.67.36v.28h-7.24V47c.55-.06.76-.3.64-.73l-1.89-4.35h-10.4l-1.83,4.17c-.21.55,0,.85.58.91v.28h-6.87V47a.73.73,0,0,0,.66-.36l8.74-19.81c.15-.33,0-.55-.43-.61v-.27h9.16v.27c-.49,0-.64.31-.43.76Zm-13-17.1-3.5,8.21h7Z"/><path class="cls-1" d="M190.08,47.25V47c.55-.09.82-.45.82-1.09V27.2c0-.64-.18-.92-.82-1v-.27h6.82v.27c-.64.09-.83.37-.83,1V42.93h13.12c.64,0,.91-.19,1-.83h.27v5.15Z"/></g></g></svg>