<svg xmlns="http://www.w3.org/2000/svg" viewBox="0 0 379.47 89.26"><title>Asset 60</title><g id="Layer_2" data-name="Layer 2"><g id="Layer_1-2" data-name="Layer 1"><path d="M101.91,88.76,99.3,84.39c-5-8.41-10.07-16.8-15.06-25.24A22.87,22.87,0,0,0,76.1,51a41,41,0,0,0-16.57-5.12c-1.38-.16-2.77-.22-4.16-.3-.65,0-1.3,0-2,0l.16.29q7,11.91,14,23.79a.91.91,0,0,1,0,.89,28.75,28.75,0,0,1-6.79,10.19A36.59,36.59,0,0,1,50,88.08c-.74.34-1.49.65-2.28,1h54.38Z"/><path d="M34.09,64.55c.49.61,1,1.19,1.56,1.8a3.32,3.32,0,0,0,.2-.28Q43.34,54.21,50.8,42.32a1.06,1.06,0,0,1,1-.57,42.77,42.77,0,0,1,5.88.23,45.19,45.19,0,0,1,6.41,1.29A42,42,0,0,1,76.9,49.35c1,.67,1.88,1.38,2.88,2.13L79.45,51c-2.56-4.25-5.1-8.5-7.66-12.76l.07,0L51.2,3.83,29.46,40.13h0l0,.12a29.1,29.1,0,0,0-1.14,6,24.72,24.72,0,0,0,.52,7.43A26.63,26.63,0,0,0,34.09,64.55Z"/><path d="M62.78,71.41c.19-.4.36-.81.55-1.26a3.25,3.25,0,0,0-.36,0l-3.06,0L48.73,70H44.08L33.63,70a.62.62,0,0,1-.44-.17,34.6,34.6,0,0,1-5-8A27.66,27.66,0,0,1,26,53.65a28,28,0,0,1,.16-3.54L26.74,45c.06-.24.13-.47.19-.71-.05.08-.09.16-.14.23l0-.12L0,89.26l24.4-.19q7.74,0,15.47,0c.8,0,1.61-.07,2.41-.12a15,15,0,0,0,3.86-.87,23.34,23.34,0,0,0,8.29-5.21A38.23,38.23,0,0,0,62.78,71.41Z"/><path d="M1.26,47.17l.06-.06L.8,46.54c.47-.12,1,.05,1.39-.1v-.12H.76l.56-.61-.06-.07c-.35.16-.55.5-.87.77C.72,46.68.9,47,1.26,47.17Z"/><path d="M101.55,46.5l-.56.61.07.07a3.51,3.51,0,0,0,.85-.79c-.32-.25-.5-.6-.86-.75l-.06.07.54.59c-.5.06-1,0-1.41.05v.15Z"/><path d="M157,37.3c.16.39.55.61,1.21.66v.49H145.19V38c1-.11,1.37-.55,1.15-1.32l-3.4-7.84H124.18l-3.29,7.52c-.39,1,0,1.53,1,1.64v.49h-12.4V38a1.31,1.31,0,0,0,1.21-.66L126.48,1.59c.28-.6,0-1-.76-1.09V0h16.51V.5c-.88.05-1.15.54-.77,1.37ZM133.56,6.47l-6.31,14.81h12.62Z"/><path d="M158.63,2.31c0-1.16-.33-1.65-1.48-1.81V0h12.29V.5c-1.15.16-1.48.65-1.48,1.81V21.94c-.06,6.37,3.95,9.22,10.14,9.22s10.26-2.85,10.21-9.22V2.31c0-1.16-.33-1.65-1.48-1.81V0h12.23V.5c-1.1.16-1.43.65-1.43,1.81v20q.09,8.15-5.43,12.51c-3.67,2.91-8.39,4.33-14.1,4.33s-10.36-1.42-14-4.33-5.48-7.08-5.43-12.51Z"/><path d="M243.82,37.19a1.75,1.75,0,0,0,1.37.77v.49H231.75V38c1.05-.11,1.38-.55,1-1.26l-8.45-12.78H214.2V36.15c0,1.15.33,1.65,1.48,1.81v.49H203.39V38c1.16-.16,1.49-.66,1.49-1.81V2.31c0-1.16-.33-1.65-1.49-1.81V0h24.09c4.77,0,8.55,1.15,11.3,3.51A10.82,10.82,0,0,1,243,12.07c0,4.88-3.19,9.16-8.73,10.92ZM214.2,7.74V16.4h12.4c4.17.06,6.47-1.64,6.47-4.33s-2.3-4.39-6.47-4.33Z"/><path d="M292.81,37.3c.16.39.55.61,1.21.66v.49H281V38c1-.11,1.37-.55,1.15-1.32l-3.4-7.84H260l-3.29,7.52c-.38,1,0,1.53,1,1.64v.49H245.31V38a1.31,1.31,0,0,0,1.2-.66L262.26,1.59c.27-.6,0-1-.77-1.09V0H278V.5c-.88.05-1.15.54-.77,1.37ZM269.33,6.47,263,21.28h12.62Z"/><path d="M113.36,80.41a18.25,18.25,0,0,1-6.31-14.48c0-6,2.09-10.81,6.25-14.43s9.66-5.43,16.52-5.43a33.47,33.47,0,0,1,15.63,3.57c.55.27,1,0,1.43-.55l.49.22L143,59.07l-.44-.22a1.45,1.45,0,0,0-.72-1.81,20.06,20.06,0,0,0-11.3-3,14.85,14.85,0,0,0-9.76,3.23A10.6,10.6,0,0,0,117,65.93a10.78,10.78,0,0,0,3.89,8.72,15.19,15.19,0,0,0,9.88,3.24,20.74,20.74,0,0,0,11.52-3.07,1.5,1.5,0,0,0,.6-1.87l.5-.17,4.27,9.77-.44.22c-.43-.6-.87-.77-1.37-.6a32.67,32.67,0,0,1-15.9,3.67C123.07,85.84,117.58,84,113.36,80.41Z"/><path d="M196,84c.16.39.55.6,1.2.66v.49h-13v-.49c1-.11,1.37-.55,1.15-1.32l-3.4-7.84H163.17L159.88,83c-.39,1,0,1.54,1,1.65v.49h-12.4v-.49a1.34,1.34,0,0,0,1.21-.66l15.74-35.71c.28-.6,0-1-.77-1.1v-.49h16.52v.49c-.88.06-1.16.55-.77,1.37ZM172.55,53.2,166.24,68h12.62Z"/><path d="M199.54,85.18v-.49c1.15-.16,1.48-.66,1.48-1.81V49c0-1.15-.33-1.64-1.48-1.81v-.49h24.14c4.82-.06,8.61,1.15,11.35,3.51a10.79,10.79,0,0,1,4.17,8.56A10.61,10.61,0,0,1,235,67.3c-2.74,2.25-6.53,3.4-11.35,3.35H210.35V82.88c0,1.15.33,1.65,1.48,1.81v.49Zm10.81-22.05H222.8c4.17.06,6.47-1.64,6.47-4.33s-2.3-4.39-6.47-4.34H210.35Z"/><path d="M242.6,85.18v-.49c1.15-.16,1.48-.66,1.48-1.81V49c0-1.15-.33-1.64-1.48-1.81v-.49h12.29v.49c-1.15.17-1.48.66-1.48,1.81V82.88c0,1.15.33,1.65,1.48,1.81v.49Z"/><path d="M271.46,85.18v-.49c1.15-.16,1.42-.66,1.42-1.81V54.52H260.21c-1.15,0-1.64.33-1.81,1.48h-.49V46.73h39.33V56h-.5c-.16-1.15-.65-1.48-1.81-1.48H282.21V82.88c0,1.15.33,1.65,1.48,1.81v.49Z"/><path d="M339.2,84c.17.39.55.6,1.21.66v.49H327.36v-.49c1-.11,1.37-.55,1.15-1.32l-3.4-7.84H306.35L303.05,83c-.38,1,0,1.54,1.05,1.65v.49H291.7v-.49a1.35,1.35,0,0,0,1.21-.66l15.74-35.71c.27-.6,0-1-.77-1.1v-.49h16.51v.49c-.87.06-1.15.55-.76,1.37ZM315.73,53.2,309.42,68H322Z"/><path d="M342.72,85.18v-.49c1-.16,1.48-.82,1.48-2V49c0-1.15-.33-1.64-1.48-1.81v-.49H355v.49c-1.15.17-1.48.66-1.48,1.81V77.39h23.65c1.15,0,1.64-.33,1.81-1.48h.49v9.27Z"/></g></g></svg>