<svg xmlns="http://www.w3.org/2000/svg" viewBox="0 0 300.24 70.62"><defs><style>.cls-1{fill:#fff;}</style></defs><title>Asset 62</title><g id="Layer_2" data-name="Layer 2"><g id="Layer_1-2" data-name="Layer 1"><path class="cls-1" d="M80.63,70.23l-2.06-3.46c-4-6.65-8-13.3-11.91-20a18.18,18.18,0,0,0-6.45-6.47,32.27,32.27,0,0,0-13.11-4c-1.09-.13-2.19-.18-3.29-.24-.51,0-1,0-1.57,0l.12.23Q47.9,45.69,53.44,55.1a.7.7,0,0,1,0,.7,22.63,22.63,0,0,1-5.37,8.06,28.85,28.85,0,0,1-8.54,5.83c-.59.27-1.18.51-1.81.79h43C80.71,70.38,80.68,70.3,80.63,70.23Z"/><path class="cls-1" d="M27,51.08c.39.48.81.93,1.24,1.42l.16-.22q5.91-9.39,11.82-18.8A.86.86,0,0,1,41,33a34.45,34.45,0,0,1,4.65.19,34.72,34.72,0,0,1,5.07,1,33.25,33.25,0,0,1,10.15,4.82c.76.52,1.49,1.09,2.28,1.68l-.26-.41-6-10.09,0,0L40.51,3,23.31,31.75h0l-.05.1a23.8,23.8,0,0,0-.9,4.73,20,20,0,0,0,.41,5.88A21.17,21.17,0,0,0,27,51.08Z"/><path class="cls-1" d="M49.68,56.5c.15-.31.27-.64.43-1l-.29,0-2.41,0-8.85-.05H34.88l-8.27,0a.52.52,0,0,1-.35-.13,27.26,27.26,0,0,1-3.92-6.34,21.67,21.67,0,0,1-1.75-6.45,23.85,23.85,0,0,1,.13-2.8l.44-4,.15-.56-.11.18v-.09L0,70.62l19.31-.15q6.12,0,12.23,0c.64,0,1.28,0,1.91-.09a11.91,11.91,0,0,0,3.06-.69,18.69,18.69,0,0,0,6.56-4.12A30.38,30.38,0,0,0,49.68,56.5Z"/><path class="cls-1" d="M1,37.32l.05,0-.42-.45c.38-.09.75,0,1.1-.08v-.09H.6l.45-.49-.06,0a3.47,3.47,0,0,0-.68.61C.57,36.93.72,37.21,1,37.32Z"/><path class="cls-1" d="M80.35,36.79l-.45.48.06.06a2.81,2.81,0,0,0,.67-.62c-.25-.2-.39-.48-.67-.6l0,.06.42.46c-.39,0-.76,0-1.11,0v.11Z"/><path class="cls-1" d="M124.25,29.51c.13.31.44.48,1,.53v.39H114.88V30c.78-.09,1.08-.44.91-1.05l-2.69-6.2H98.25l-2.6,5.94c-.3.78,0,1.22.82,1.31v.39h-9.8V30a1.07,1.07,0,0,0,1-.53L100.08,1.26c.21-.48,0-.78-.61-.87V0h13.06V.39c-.69,0-.91.44-.6,1.09ZM105.68,5.12l-5,11.72h10Z"/><path class="cls-1" d="M125.51,1.82c0-.91-.26-1.3-1.17-1.43V0h9.72V.39c-.91.13-1.17.52-1.17,1.43V17.36c0,5,3.13,7.29,8,7.29S149,22.4,149,17.36V1.82c0-.91-.26-1.3-1.17-1.43V0h9.68V.39c-.87.13-1.13.52-1.13,1.43v15.8q.06,6.45-4.3,9.9c-2.9,2.3-6.64,3.43-11.15,3.43s-8.2-1.13-11.11-3.43-4.34-5.6-4.3-9.9Z"/><path class="cls-1" d="M192.92,29.43A1.39,1.39,0,0,0,194,30v.39H183.37V30c.82-.09,1.08-.44.78-1l-6.68-10.12h-8V28.6c0,.91.26,1.31,1.17,1.44v.39h-9.72V30c.91-.13,1.17-.53,1.17-1.44V1.82c0-.91-.26-1.3-1.17-1.43V0h19c3.78,0,6.77.91,8.94,2.78a8.52,8.52,0,0,1,3.3,6.77c0,3.86-2.51,7.25-6.9,8.64ZM169.48,6.12V13h9.81c3.3,0,5.12-1.3,5.12-3.43s-1.82-3.47-5.12-3.43Z"/><path class="cls-1" d="M231.68,29.51c.13.31.43.48.95.53v.39H222.3V30c.78-.09,1.09-.44.91-1.05l-2.69-6.2H205.68l-2.6,5.94c-.31.78,0,1.22.82,1.31v.39h-9.81V30a1.07,1.07,0,0,0,1-.53L207.5,1.26c.22-.48,0-.78-.61-.87V0H220V.39c-.7,0-.91.44-.61,1.09ZM213.1,5.12l-5,11.72h10Z"/><path class="cls-1" d="M89.69,63.62a14.42,14.42,0,0,1-5-11.46,14.37,14.37,0,0,1,5-11.41c3.3-2.87,7.64-4.3,13.06-4.3a26.56,26.56,0,0,1,12.37,2.82c.44.22.83,0,1.13-.43l.39.17-3.43,7.73-.34-.17a1.16,1.16,0,0,0-.57-1.44,15.92,15.92,0,0,0-8.94-2.38,11.69,11.69,0,0,0-7.72,2.56,8.36,8.36,0,0,0-3,6.85,8.5,8.5,0,0,0,3.08,6.9,12,12,0,0,0,7.81,2.57,16.49,16.49,0,0,0,9.12-2.43,1.19,1.19,0,0,0,.47-1.48l.39-.13,3.39,7.73-.35.17c-.35-.48-.69-.61-1.08-.48a25.85,25.85,0,0,1-12.59,2.91C97.37,67.92,93,66.49,89.69,63.62Z"/><path class="cls-1" d="M155.1,66.49c.13.3.44.47,1,.52v.39H145.73V67c.78-.09,1.08-.44.91-1L144,59.76H129.1l-2.6,5.95c-.31.78,0,1.21.82,1.3v.39h-9.81V67a1.09,1.09,0,0,0,1-.52l12.46-28.26c.21-.48,0-.78-.61-.87V37h13.06v.39c-.69,0-.91.44-.61,1.09ZM136.52,42.1l-5,11.71h10Z"/><path class="cls-1" d="M157.88,67.4V67c.91-.13,1.17-.52,1.17-1.43V38.8c0-.92-.26-1.31-1.17-1.44V37H177c3.82,0,6.81.91,9,2.78a8.55,8.55,0,0,1,3.3,6.77,8.41,8.41,0,0,1-3.3,6.73c-2.17,1.78-5.16,2.69-9,2.65H166.43v9.68c0,.91.26,1.3,1.17,1.43v.39ZM166.43,50h9.85c3.3,0,5.12-1.3,5.12-3.43s-1.82-3.47-5.12-3.43h-9.85Z"/><path class="cls-1" d="M192,67.4V67c.91-.13,1.17-.52,1.17-1.43V38.8c0-.92-.26-1.31-1.17-1.44V37h9.72v.39c-.91.13-1.17.52-1.17,1.44V65.58c0,.91.26,1.3,1.17,1.43v.39Z"/><path class="cls-1" d="M214.78,67.4V67c.91-.13,1.13-.52,1.13-1.43V43.14h-10c-.91,0-1.3.26-1.43,1.17h-.39V37h31.12v7.34h-.39c-.13-.91-.52-1.17-1.43-1.17H223.29V65.58c0,.91.26,1.3,1.17,1.43v.39Z"/><path class="cls-1" d="M268.39,66.49c.13.3.43.47.95.52v.39H259V67c.78-.09,1.09-.44.91-1l-2.69-6.21H242.39l-2.61,5.95c-.3.78,0,1.21.83,1.3v.39H230.8V67a1.07,1.07,0,0,0,.95-.52l12.46-28.26c.22-.48,0-.78-.61-.87V37h13.07v.39c-.7,0-.91.44-.61,1.09ZM249.81,42.1l-5,11.71h10Z"/><path class="cls-1" d="M271.16,67.4V67a1.36,1.36,0,0,0,1.18-1.56V38.8c0-.92-.26-1.31-1.18-1.44V37h9.73v.39c-.91.13-1.18.52-1.18,1.44V61.24h18.71c.91,0,1.3-.27,1.43-1.18h.39V67.4Z"/></g></g></svg>