<svg xmlns="http://www.w3.org/2000/svg" viewBox="0 0 28.79 28.8"><title>Asset 58</title><g id="Layer_2" data-name="Layer 2"><g id="Layer_1-2" data-name="Layer 1"><path d="M14.38,28.8H2.82A2.69,2.69,0,0,1,.17,27a2.75,2.75,0,0,1-.16-.9q0-6.9,0-13.81A2.7,2.7,0,0,1,2.57,9.61h8.35a1,1,0,0,1,.9.38.9.9,0,0,1-.53,1.4,2.73,2.73,0,0,1-.41,0h-8c-.75,0-1.07.32-1.07,1.08a2,2,0,0,0,.05.9c.13.22.5.3.76.44,3.62,1.89,7.25,3.78,10.86,5.68a1.83,1.83,0,0,0,1.84,0l11.44-6a.37.37,0,0,0,.24-.41c0-.24,0-.48,0-.73a.93.93,0,0,0-1-1H17.83a.92.92,0,0,1-1-.71.9.9,0,0,1,.73-1.08l.29,0H26a2.66,2.66,0,0,1,2.63,1.82,2.75,2.75,0,0,1,.16.9q0,6.88,0,13.77A2.7,2.7,0,0,1,26,28.8ZM1.8,15.46V25.89c0,.77.34,1.11,1.11,1.11h23c.77,0,1.12-.34,1.12-1.11V15.46l-.25.11L16.12,21.12a3.48,3.48,0,0,1-3.45,0C9.15,19.27,5.61,17.44,2.09,15.6Z"/><path d="M13.44,3.12,11.51,5.06c-.35.35-.68.7-1,1a.82.82,0,0,1-1,.12A.79.79,0,0,1,9,5.34a1.27,1.27,0,0,1,.33-.64C10.56,3.45,11.8,2.23,13,1l.7-.7a.9.9,0,0,1,1.32,0q2.2,2.22,4.42,4.43a1,1,0,0,1,.31.69.87.87,0,0,1-.51.82.8.8,0,0,1-.95-.13c-.63-.61-1.24-1.23-1.86-1.85-.37-.37-.74-.74-1.17-1.1v.25q0,5,0,10a1,1,0,0,1-.33.83.87.87,0,0,1-.91.15.86.86,0,0,1-.56-.76,2.8,2.8,0,0,1,0-.29c0-3.28,0-6.57,0-9.85V3.15Z"/></g></g></svg>