<svg xmlns="http://www.w3.org/2000/svg" viewBox="0 0 95.88 77.47"><defs><style>.cls-1{fill:#d9cabc;}</style></defs><title>Asset 47</title><g id="Layer_2" data-name="Layer 2"><g id="Layer_1-2" data-name="Layer 1"><circle class="cls-1" cx="32.31" cy="45.16" r="32.31"/><path d="M95.88,26.24l-16-10h-.27V13.38h1.91V10l-16-10H63.1l-16,10v3.4H49V27.07L36.61,34.84v3.4h1.91v21H69.11v-8.6H94v-21h1.91ZM49,11.05,63.65,1.91H65l14.61,9.14v.42H49ZM51,13.38H77.72v2.87h-.28L72,19.66V17.21H56.69v8.67l-1.64-1H52.59l-1.64,1ZM62.7,29.63h.68v.43Zm-1.23-3.39v2.63l-2.87-1.8V19.12H70.07v1.74ZM38.52,35.9l14.62-9.13H54.5L69.11,35.9v.43H38.52Zm21,21.46H48.08V44H59.55Zm1.92,0V42.06H46.17v15.3H40.44V38.24H67.2V57.36Zm7.64-19.12H71V48.75H69.11Zm15.3,10.51H72.94V35.37H84.41Zm7.65,0H86.32V33.46H71v1.38l-5.74-3.59V29.63H92.06Zm1.91-21H63.38V27.3L78,18.16h1.37L94,27.3Z"/></g></g></svg>