<svg xmlns="http://www.w3.org/2000/svg" viewBox="0 0 137.31 123.81"><title>Asset 43</title><g id="Layer_2" data-name="Layer 2"><g id="Layer_1-2" data-name="Layer 1"><polygon points="10.18 53.9 60.99 70.37 60.99 65 10.18 48.52 10.18 53.9"/><polygon points="43.25 53.21 60.99 58.82 60.99 53.44 43.25 47.83 43.25 53.21"/><polygon points="43.25 42.11 60.99 47.6 60.99 42.34 43.25 36.73 43.25 42.11"/><polygon points="43.25 30.9 60.99 36.5 60.99 31.13 43.25 25.63 43.25 30.9"/><polygon points="127.13 44.51 76.32 60.99 76.32 66.37 127.13 49.89 127.13 44.51"/><polygon points="109.62 75.75 127.13 70.26 127.13 64.88 109.62 70.37 109.62 75.75"/><polygon points="109.62 86.97 127.13 81.47 127.13 76.09 109.62 81.59 109.62 86.97"/><polygon points="109.62 98.18 127.13 92.69 127.13 87.31 109.62 92.8 109.62 98.18"/><path d="M136.28.46A2.23,2.23,0,0,0,134.8,0a2,2,0,0,0-.8.11L68.66,21.74,3.32.11A2.73,2.73,0,0,0,1,.46,2.44,2.44,0,0,0,0,2.52v96.8a2.49,2.49,0,0,0,1.72,2.41l66.14,22H68c.23,0,.34.11.57.11h.23a1.52,1.52,0,0,0,.69-.11h0l66.14-21.86a2.57,2.57,0,0,0,1.71-2.4V2.52A2.59,2.59,0,0,0,136.28.46ZM5,6.06,66,26.32v91.43L5,97.49ZM132.28,97.49l-61,20.26V26.32l61-20.26Z"/><path d="M10.18,92.57,61,109.05V85.48L10.18,69Zm5-16.59L56,89.25v12.82L15.22,88.8Z"/><path d="M37.42,23.57,10.18,14.76V42.34l27.24,8.81Zm-5.15,20.6L15.22,38.68V21.74l17.05,5.49Z"/><path d="M127.13,14.76,76.32,31.24V54.81l50.81-16.48Zm-5,19.8L81.36,47.83V35L122.1,21.74Z"/><path d="M103.56,72.66,76.32,81.47v27.58l27.24-8.81Zm-5.15,23.8-17,5.5V85.25l17-5.49Z"/></g></g></svg>