<svg xmlns="http://www.w3.org/2000/svg" viewBox="0 0 77.44 64.77"><defs><style>.cls-1{fill:#d9cabc;}</style></defs><title>Asset 48</title><g id="Layer_2" data-name="Layer 2"><g id="Layer_1-2" data-name="Layer 1"><circle class="cls-1" cx="32.31" cy="32.45" r="32.31"/><path d="M31.48,47.23a4,4,0,0,0,1.27,3.1,4.42,4.42,0,0,0,3.1,1.36H75.8V42.86H35.85a4.75,4.75,0,0,0-3.1,1.28A4.32,4.32,0,0,0,31.48,47.23ZM59.69,15.38a.8.8,0,0,1-.45-1,.73.73,0,0,1,1-.55c.18.09.36.09.54.18s.28.19.46.28a.77.77,0,0,1,.36,1,.73.73,0,0,1-1.09.36.47.47,0,0,1-.36-.18C60,15.47,59.87,15.38,59.69,15.38Zm3.09,2.09a.74.74,0,0,1,.1-1.09.75.75,0,0,1,1.09.09,8.91,8.91,0,0,1,1.64,2.82,10.62,10.62,0,0,1,.54,3.37A8.88,8.88,0,0,1,65.06,27a8.6,8.6,0,0,1-2.82,3.37.86.86,0,0,1-1.18-.19.83.83,0,0,1,.27-1.09,9,9,0,0,0,2.36-2.82,8.16,8.16,0,0,0,.82-3.64,9.73,9.73,0,0,0-.45-2.82A8.42,8.42,0,0,0,62.78,17.47ZM30.11,45.41l5-16.65A6.49,6.49,0,0,1,37,25.21a5.32,5.32,0,0,1,3-1.55v-1a12.92,12.92,0,0,1,3.1-8.55,10.47,10.47,0,0,1,7.73-3.55,9.31,9.31,0,0,1,2.28.27,6.2,6.2,0,0,1,1.73.55,6,6,0,0,1,1.73-.55,9.17,9.17,0,0,1,2.27-.27,10.51,10.51,0,0,1,7.74,3.55,12.91,12.91,0,0,1,3.09,8.55v1h1.73a2.84,2.84,0,0,1,.91.09,3.26,3.26,0,0,1,.91.18l.46.19.09.45,3.45,16.66h.19v12H35.85a5.91,5.91,0,0,1-6-6,5.93,5.93,0,0,1,.27-1.82Zm45.51-4.18L72.34,25.39a.33.33,0,0,1-.27-.09H69.43a12.56,12.56,0,0,1-2.82,5.82,10.51,10.51,0,0,1-7.74,3.55,9.17,9.17,0,0,1-2.27-.27,6,6,0,0,1-1.73-.55,6.2,6.2,0,0,1-1.73.55,9.31,9.31,0,0,1-2.28.27,10.47,10.47,0,0,1-7.73-3.55,12.37,12.37,0,0,1-2.82-5.82,3.59,3.59,0,0,0-2.19,1.09A5.42,5.42,0,0,0,36.67,29v.18L32.84,42.14a5.56,5.56,0,0,1,3-.91Zm-22-32.49a3.2,3.2,0,0,0-.27-1.19,4.82,4.82,0,0,0-1.09-1.27,4.15,4.15,0,0,0-1.64-.64,5.22,5.22,0,0,0-1.18.09,2.57,2.57,0,0,0,.27,1.19,2.64,2.64,0,0,0,1.09,1.36,3.25,3.25,0,0,0,1.55.64A3.11,3.11,0,0,0,53.59,8.74Zm1.19-1.82a5,5,0,0,1,.36,2.54l-.09.37-.36.18a4.64,4.64,0,0,1-2.46.46,5.62,5.62,0,0,1-2.46-.91,4.22,4.22,0,0,1-1.55-2,4.53,4.53,0,0,1-.36-2.45L48,4.73l.36-.18A3.85,3.85,0,0,1,50.77,4a6.05,6.05,0,0,1,2.37.91A5.78,5.78,0,0,1,54.78,6.92Zm.82,2.73a6.43,6.43,0,0,1-.28-3.73,7.37,7.37,0,0,1,1.73-3.46A7.26,7.26,0,0,1,60.42.27a6.57,6.57,0,0,1,3.73,0l.36.09.19.37A6.82,6.82,0,0,1,65,4.55,6.93,6.93,0,0,1,63.24,8,7.43,7.43,0,0,1,60,10.1a6.73,6.73,0,0,1-3.82.09L55.78,10Zm1.27-3.46A6,6,0,0,0,57,8.74a5.57,5.57,0,0,0,2.46-.19,5.38,5.38,0,0,0,2.64-1.63,5.61,5.61,0,0,0,1.36-2.73,4.54,4.54,0,0,0-.09-2.46,4.58,4.58,0,0,0-2.46.09,5.7,5.7,0,0,0-2.54,1.73A4.8,4.8,0,0,0,56.87,6.19Zm-4.1,6.19a12.35,12.35,0,0,0-1.91-.19,8.7,8.7,0,0,0-6.46,3A11.16,11.16,0,0,0,44.4,30a8.7,8.7,0,0,0,6.46,3,12.35,12.35,0,0,0,1.91-.19,9.53,9.53,0,0,0,1.73-.63,1,1,0,0,1,.73,0,13.38,13.38,0,0,0,1.73.63,12.48,12.48,0,0,0,1.91.19,8.7,8.7,0,0,0,6.46-3,11.16,11.16,0,0,0,0-14.83,8.7,8.7,0,0,0-6.46-3,12.48,12.48,0,0,0-1.91.19,13.38,13.38,0,0,0-1.73.63,1,1,0,0,1-.73,0A9.53,9.53,0,0,0,52.77,12.38Z"/></g></g></svg>