<svg xmlns="http://www.w3.org/2000/svg" viewBox="0 0 68.23 78.04"><defs><style>.cls-1{fill:#d9cabc;}</style></defs><title>Asset 49</title><g id="Layer_2" data-name="Layer 2"><g id="Layer_1-2" data-name="Layer 1"><circle class="cls-1" cx="35.92" cy="32.31" r="32.31"/><path d="M28.49,52.64l1-3.1a.92.92,0,0,0,0-.69.86.86,0,0,0-.5-.47l-.15-.05-5.17-1a.9.9,0,0,0-.81,1.51L27,53a.89.89,0,0,0,.63.26h.24A.87.87,0,0,0,28.49,52.64Zm-1.23-2-1.11-1,1.36.26Z"/><path d="M23.8,64.88a.8.8,0,0,0-.5,0h0l-4.13,1a.91.91,0,0,0-.55.41.9.9,0,0,0-.1.68.87.87,0,0,0,.17.33l2.94,3.72a.88.88,0,0,0,.7.34h.22a.88.88,0,0,0,.64-.65L24.4,66a.89.89,0,0,0-.6-1.11Zm-1.91,3.65-1-1.22L22.28,67Z"/><path d="M17,52.94h.18l3.08-.53a.89.89,0,0,0,.68-1l-.54-3.14a.89.89,0,0,0-.86-.65h-.13l-3.1.54a.89.89,0,0,0-.72,1l.54,3.11A.88.88,0,0,0,17,52.94Zm1.8-3.45L19,50.8,17.69,51l-.22-1.32Z"/><path d="M47.29,31.79H45.51L44,27.23a.89.89,0,0,0-.82-.61H14.2a.9.9,0,0,0-.85.61l-1.5,4.56H10.06a1.92,1.92,0,0,0-1.92,1.93v3.1a1.93,1.93,0,0,0,1.92,1.93h1.27l.23,2.18-.11,0A38.89,38.89,0,0,0,.84,46.31,2.07,2.07,0,0,0,0,47.65,2,2,0,0,0,.4,49.18L2.48,52,14.34,67.54v0l.73,6.88A4,4,0,0,0,19,78H38.32a4,4,0,0,0,4-3.58l1.43-13.41a.82.82,0,0,0,.13-.37l.84-8.27a.86.86,0,0,0,0-.32v0L46,38.75h1.26a1.93,1.93,0,0,0,1.93-1.93v-3.1A1.92,1.92,0,0,0,47.29,31.79ZM14.87,28.4H42.48l1.13,3.39H13.73ZM4.13,49.64c-.19.12-.38.24-.56.38l-.11.08-1.53-2-.07,0c-.06,0-.07-.13,0-.24v0l0,0a37,37,0,0,1,14.78-6.29l.51-.1c.63-.11,1.24-.19,1.86-.28l1.87-.18h.67l1.23-.09h2.93l.87.06,2.19.21c.48.07.93.14,1.41.23l.75.13a20.39,20.39,0,0,1,2.08.48l1.32.47L33.51,45l-1.59-.42-1-.24L30,44.15,28.87,44l-.94-.13-1.11-.12-.92-.07H21.78c-.31,0-.62,0-.93.07l-.4.05-.71.06c-.69.07-1.38.17-2.06.29-.42.07-.9.16-1.37.26l-1.37.34h-.07l-1.18.33-.91.29c-.87.29-1.73.61-2.57,1-.18.07-.35.16-.52.24l-.28.13c-.64.29-1.17.53-1.66.78-.16.08-.31.17-.46.26L6.81,48c-.48.26-1,.54-1.43.83l-.7.46-.24.17ZM22.29,38.89h0V39h-.45a12.91,12.91,0,0,0-1.76.13l-.75.08c-.87.09-1.68.21-2.47.35l-.55.1c-.87.16-1.74.37-2.55.58l-.46.11-.18-1.63h9.17v.14ZM35.43,53.64a7,7,0,0,1,.27.81l.06.21c.05.22.09.44.13.67a.46.46,0,0,1,0,.26,6.84,6.84,0,0,1,0,1.75v.2c0,.12-.14.7-.14.71v.17a7.75,7.75,0,0,1-.28.81l0,.13c-.11.25-.24.51-.38.76a7.42,7.42,0,0,1-5.49,3.73l-.23,0,4.2-13,.16.16A7.48,7.48,0,0,1,35,52.73l0,0v.06C35.18,53.09,35.31,53.37,35.43,53.64ZM19.06,76.26a2.21,2.21,0,0,1-2.19-1.91l0,0-.42-4.06,4.57,6Zm4.2-.15h-.07a.2.2,0,0,1-.13,0l0,0L15.9,66.74,4.52,51.65l1-.67c.27-.19.55-.37.83-.55l1.39-.81L8,49.47l.57-.32c.47-.24,1-.49,1.66-.79l.67-.3c.9-.38,1.7-.68,2.45-.92l.9-.29c.39-.13.8-.23,1.19-.33.86-.24,1.71-.43,2.57-.58.66-.11,1.3-.2,1.95-.28l.63,0a6,6,0,0,0,.73,0l.59-.05h3.88l1.89.18.85.11,1,.17.85.16,1,.24.84.22.62.19,0,.14L26.56,66.67l-3,9.34A.26.26,0,0,1,23.26,76.11ZM41.81,61.65,40.45,74.26a2.2,2.2,0,0,1-2.19,2h-13l.06-.19,2.9-9,.48-1.41h.1a9.19,9.19,0,0,0,7.45-4.07l0-.06h5.5ZM42,59.71H37.23l.1-.36.14-.33a2,2,0,0,1,.08-.33,1.27,1.27,0,0,0,.06-.18.93.93,0,0,0,0-.14.43.43,0,0,1,.07-.24,1.21,1.21,0,0,0,0-.33c0-.06,0-.12,0-.18a1.77,1.77,0,0,0,0-.19.25.25,0,0,1,0-.09v-.88a8.6,8.6,0,0,0-.06-1v-.32a2.79,2.79,0,0,0-.12-.67l0-.16a.93.93,0,0,0,0-.21.93.93,0,0,1,0-.13c0-.11-.11-.36-.17-.54l-.06-.19h5.45ZM44.22,39,42.91,51.44H36.33l0-.06a9.1,9.1,0,0,0-2.11-2.22l-.08-.06L35,46.46l1-3.3a2.84,2.84,0,0,0,.06-.31c0-.1,0-.19.05-.28a1.71,1.71,0,0,0,0-.32V42c0-.09-.08-.2-.13-.31a1.4,1.4,0,0,0-.45-.61.89.89,0,0,0-.32-.21l-1.61-.58c-.66-.17-1.35-.33-2-.47l-.3-.05c-.55-.1-1.17-.22-1.77-.31l-1.25-.17-.88-.11h-.68c-.28,0-.56,0-.84,0l-.57-.05V38.8h19Zm3.22-2H9.92V33.58H47.44Z"/><path d="M40.92,49.09H41a.9.9,0,0,0,.89-.81l.65-6.2a.84.84,0,0,0-.2-.66.89.89,0,0,0-.6-.33.93.93,0,0,0-.66.2.87.87,0,0,0-.32.6l-.66,6.21a.91.91,0,0,0,.79,1Z"/><path d="M11.62,50.41a2.44,2.44,0,1,0,2.44,2.44A2.45,2.45,0,0,0,11.62,50.41Zm0,3.1a.66.66,0,1,1,.66-.66A.66.66,0,0,1,11.62,53.51Z"/><path d="M24,56.61a2.45,2.45,0,1,0,2.44,2.44A2.45,2.45,0,0,0,24,56.61Zm0,3.1a.66.66,0,1,1,.65-.66A.65.65,0,0,1,24,59.71Z"/><path d="M19,58h0a1,1,0,0,0-.68-.33H13.16a.94.94,0,0,0-.63.26.92.92,0,0,0-.26.63.9.9,0,0,0,.2.57l4.14,5.17a.88.88,0,0,0,.69.33h0a.79.79,0,0,0,.9-.71l1-5.17A.89.89,0,0,0,19,58ZM16.8,61.66,15,59.43h2.23Z"/></g></g></svg>