<svg xmlns="http://www.w3.org/2000/svg" viewBox="0 0 104.67 104.67"><title>Asset 42</title><g id="Layer_2" data-name="Layer 2"><g id="Layer_1-2" data-name="Layer 1"><path d="M102.92,69.78H90.71V29.66A1.74,1.74,0,0,0,89,27.91H80.25V1.74A1.75,1.75,0,0,0,78.5,0H12.21l-.09,0a1.64,1.64,0,0,0-.49.1l-.15.05a1.64,1.64,0,0,0-.5.34h0L.51,11h0a1.85,1.85,0,0,0-.34.5,1,1,0,0,0-.05.16,1.46,1.46,0,0,0-.1.46s0,.07,0,.11V64.55a1.74,1.74,0,0,0,1.74,1.74H24.42v14H1.74A1.74,1.74,0,0,0,0,82v20.93a1.74,1.74,0,0,0,1.74,1.75H96A8.73,8.73,0,0,0,104.67,96V71.52A1.74,1.74,0,0,0,102.92,69.78ZM76.76,27.91H73.27V3.49h3.49Zm-7,0H66.29V3.49h3.49Zm-7,0H59.31V3.49H62.8ZM10.47,6v4.51H6Zm-7,56.84V14h8.72A1.75,1.75,0,0,0,14,12.21V3.49H55.82V27.91H12.21a1.74,1.74,0,0,0-1.74,1.75V50.59a1.74,1.74,0,0,0,1.74,1.74H24.42V62.8ZM24.42,48.85H14V31.4H24.42ZM3.49,83.74H62.8v3.48H3.49Zm0,7H62.8V94.2H3.49Zm0,7H62.8v3.49H3.49Zm62.8,3.49V82a1.74,1.74,0,0,0-1.74-1.74H27.91V31.4H87.22V96a8.53,8.53,0,0,0,.17,1.61c0,.17.08.33.12.49a9,9,0,0,0,.32,1c.07.18.15.35.23.52a8,8,0,0,0,.49.91l.29.45c0,.07.08.14.13.21ZM101.18,96a5.24,5.24,0,0,1-10.47,0V73.27h10.47Z"/><rect x="19.19" y="10.47" width="27.91" height="3.49"/><rect x="19.19" y="17.44" width="27.91" height="3.49"/><rect x="34.89" y="38.38" width="45.36" height="3.49"/><path d="M57.57,45.36H36.63a1.74,1.74,0,0,0-1.74,1.74v14a1.74,1.74,0,0,0,1.74,1.74H57.57a1.74,1.74,0,0,0,1.74-1.74v-14A1.74,1.74,0,0,0,57.57,45.36Zm-1.75,14H38.38V48.85H55.82Z"/><rect x="62.8" y="45.36" width="17.44" height="3.49"/><rect x="62.8" y="52.33" width="17.44" height="3.49"/><rect x="62.8" y="59.31" width="17.44" height="3.49"/><rect x="34.89" y="66.29" width="24.42" height="3.49"/><rect x="34.89" y="73.27" width="24.42" height="3.49"/><path d="M78.5,66.29h-7A1.74,1.74,0,0,0,69.78,68V96a1.74,1.74,0,0,0,1.74,1.74h7A1.75,1.75,0,0,0,80.25,96V68A1.75,1.75,0,0,0,78.5,66.29ZM76.76,94.2H73.27V69.78h3.49Z"/></g></g></svg>