<svg xmlns="http://www.w3.org/2000/svg" viewBox="0 0 76.65 64.63"><defs><style>.cls-1{fill:#fff;}</style></defs><title>Asset 59</title><g id="Layer_2" data-name="Layer 2"><g id="Layer_1-2" data-name="Layer 1"><circle class="cls-1" cx="44.33" cy="32.31" r="32.31"/><path d="M19.58,30.09A3.88,3.88,0,1,0,23.46,34,3.87,3.87,0,0,0,19.58,30.09Zm0,6A2.15,2.15,0,1,1,21.73,34,2.13,2.13,0,0,1,19.58,36.11Z"/><path d="M10.39,30.09A3.88,3.88,0,1,0,14.26,34,3.87,3.87,0,0,0,10.39,30.09Zm0,6a2.15,2.15,0,1,1,0-4.29,2.15,2.15,0,1,1,0,4.29Z"/><path d="M28.78,30.09A3.88,3.88,0,1,0,32.65,34,3.87,3.87,0,0,0,28.78,30.09Zm0,6A2.15,2.15,0,1,1,30.92,34,2.13,2.13,0,0,1,28.78,36.11Z"/><path d="M29.27,24.07H9.89a9.9,9.9,0,0,0,0,19.79H29.27a9.9,9.9,0,0,0,0-19.79Zm0,18H9.89a8.16,8.16,0,0,1,0-16.32H29.27a8.16,8.16,0,1,1,0,16.32Z"/></g></g></svg>