<svg xmlns="http://www.w3.org/2000/svg" viewBox="0 0 39.16 19.79"><title>Asset 52</title><g id="Layer_2" data-name="Layer 2"><g id="Layer_1-2" data-name="Layer 1"><path d="M19.58,6a3.88,3.88,0,1,0,3.88,3.87A3.87,3.87,0,0,0,19.58,6Zm0,6a2.15,2.15,0,1,1,2.15-2.15A2.13,2.13,0,0,1,19.58,12Z"/><path d="M10.39,6a3.88,3.88,0,1,0,3.87,3.87A3.87,3.87,0,0,0,10.39,6Zm0,6a2.15,2.15,0,1,1,0-4.29,2.15,2.15,0,1,1,0,4.29Z"/><path d="M28.78,6a3.88,3.88,0,1,0,3.87,3.87A3.87,3.87,0,0,0,28.78,6Zm0,6a2.15,2.15,0,1,1,2.14-2.15A2.13,2.13,0,0,1,28.78,12Z"/><path d="M29.27,0H9.89a9.9,9.9,0,0,0,0,19.79H29.27A9.9,9.9,0,0,0,29.27,0Zm0,18.06H9.89a8.17,8.17,0,0,1,0-16.33H29.27a8.17,8.17,0,0,1,0,16.33Z"/></g></g></svg>