<svg xmlns="http://www.w3.org/2000/svg" viewBox="0 0 84.72 73.31"><defs><style>.cls-1{fill:#d9cabc;}</style></defs><title>Asset 50</title><g id="Layer_2" data-name="Layer 2"><g id="Layer_1-2" data-name="Layer 1"><circle class="cls-1" cx="52.41" cy="40.99" r="32.31"/><path d="M45.84.06A5.93,5.93,0,0,0,40,5.16H31.77a5.92,5.92,0,1,0,0,1.65h8.31A5.92,5.92,0,1,0,45.92.06ZM25.92,10.18A4.28,4.28,0,1,1,30.2,5.9a4.28,4.28,0,0,1-4.28,4.28Zm19.92,0A4.28,4.28,0,1,1,50.12,5.9h0A4.28,4.28,0,0,1,45.84,10.18Z"/><path d="M6,40a5.93,5.93,0,1,0,5.92,5.93h0A5.93,5.93,0,0,0,6,40ZM6,50.1a4.28,4.28,0,1,1,4.28-4.28h0A4.28,4.28,0,0,1,6,50.1Z"/><path d="M45.84,19.65a5.92,5.92,0,0,0-3.29,10.78L30.7,42.36a6,6,0,0,0-3.95-2.3V31.42a5.93,5.93,0,1,0-1.65,0v8.64a5.92,5.92,0,1,0,6.71,5,6.79,6.79,0,0,0-.29-1.16L44.19,31.25a5.92,5.92,0,1,0,3.86-11.2,5.73,5.73,0,0,0-2.21-.32Zm-24.2,5.92a4.28,4.28,0,1,1,4.28,4.28,4.28,4.28,0,0,1-4.28-4.28ZM25.92,50.1a4.28,4.28,0,1,1,4.28-4.28h0A4.28,4.28,0,0,1,25.92,50.1ZM45.84,29.85a4.28,4.28,0,1,1,4.28-4.28h0A4.28,4.28,0,0,1,45.84,29.85Z"/><path d="M45.84,40a5.93,5.93,0,1,0,5.92,5.93h0A5.93,5.93,0,0,0,45.84,40Zm0,10.13a4.28,4.28,0,1,1,4.28-4.28h0A4.28,4.28,0,0,1,45.84,50.1Z"/><path d="M11.85,6a5.93,5.93,0,1,0-6.42,5.84v8.56a5.83,5.83,0,1,0,1.65.08V11.75A5.92,5.92,0,0,0,11.85,6ZM1.73,6A4.28,4.28,0,1,1,6,10.27,4.27,4.27,0,0,1,1.73,6ZM10.2,26.23A4.28,4.28,0,1,1,5.92,22a4.28,4.28,0,0,1,4.28,4.28Z"/></g></g></svg>