<svg xmlns="http://www.w3.org/2000/svg" viewBox="0 0 110.31 124.03"><title>Asset 44</title><g id="Layer_2" data-name="Layer 2"><g id="Layer_1-2" data-name="Layer 1"><path d="M98.32,16.82H12V69.34H98.32Zm-4,48.49H16V20.85H94.3Z"/><polygon points="20.18 55.94 23.03 58.78 34.6 47.21 42.23 54.84 48.77 48.29 52.05 51.56 64.82 38.8 78.01 51.99 90.13 39.86 87.28 37.02 78.01 46.3 64.82 33.1 52.05 45.87 48.77 42.6 42.23 49.15 34.6 41.52 20.18 55.94"/><rect x="19.37" y="23.97" width="21.14" height="4.03"/><rect x="19.37" y="32.7" width="10.57" height="4.03"/><path d="M110.31,0H0V13.69H4.83V76.5H41.07v9.66h10l-27.43,35.4L26.8,124,53.14,90v32.76h4V90L83.5,124l3.18-2.46L59.25,86.16h10V76.5h36.24V13.69h4.83ZM65.22,82.13H45.09V76.5H65.22Zm36.24-9.66H8.86V13.69h92.6Zm4.82-62.81H4V4H106.29V9.66Z"/></g></g></svg>