<svg xmlns="http://www.w3.org/2000/svg" viewBox="0 0 88.34 64.63"><defs><style>.cls-1{fill:#d9cabc;}</style></defs><title>Asset 51</title><g id="Layer_2" data-name="Layer 2"><g id="Layer_1-2" data-name="Layer 1"><circle class="cls-1" cx="56.02" cy="32.31" r="32.31"/><path d="M10.08,37.54a6.32,6.32,0,1,0-6.32-6.32A6.32,6.32,0,0,0,10.08,37.54Zm0-10.73a4.41,4.41,0,1,1-4.41,4.41A4.42,4.42,0,0,1,10.08,26.81Z"/><path d="M10.08,39.28A10.09,10.09,0,0,0,0,49.36a3.1,3.1,0,0,0,3.1,3.1h14a3.1,3.1,0,0,0,3.1-3.1A10.09,10.09,0,0,0,10.08,39.28Zm7,11.27H3.1a1.19,1.19,0,0,1-1.19-1.19,8.17,8.17,0,0,1,16.34,0A1.19,1.19,0,0,1,17.06,50.55Z"/><path d="M28.61,25.75a6.32,6.32,0,1,0-6.32-6.32A6.34,6.34,0,0,0,28.61,25.75Zm0-10.74a4.42,4.42,0,1,1-4.41,4.42A4.42,4.42,0,0,1,28.61,15Z"/><path d="M38.69,37.56a10.08,10.08,0,1,0-20.15,0,3.11,3.11,0,0,0,3.1,3.11h14A3.11,3.11,0,0,0,38.69,37.56Zm-3.1,1.2h-14a1.2,1.2,0,0,1-1.2-1.2,8.18,8.18,0,0,1,16.35,0A1.2,1.2,0,0,1,35.59,38.76Z"/><path d="M47.15,37.54a6.32,6.32,0,1,0-6.32-6.32A6.32,6.32,0,0,0,47.15,37.54Zm0-10.73a4.41,4.41,0,1,1-4.41,4.41A4.42,4.42,0,0,1,47.15,26.81Z"/><path d="M47.15,39.28A10.09,10.09,0,0,0,37.07,49.36a3.1,3.1,0,0,0,3.1,3.1h14a3.1,3.1,0,0,0,3.1-3.1A10.09,10.09,0,0,0,47.15,39.28Zm7,11.27h-14A1.19,1.19,0,0,1,39,49.36a8.17,8.17,0,0,1,16.34,0A1.19,1.19,0,0,1,54.13,50.55Z"/><path d="M28.61,9.59a1,1,0,0,0,1-1V3.69a1,1,0,0,0-1.91,0V8.63A1,1,0,0,0,28.61,9.59Z"/><path d="M43.32,15.68A.94.94,0,0,0,44,15.4l3.49-3.49a1,1,0,0,0-1.35-1.35l-3.49,3.49a1,1,0,0,0,0,1.35A.92.92,0,0,0,43.32,15.68Z"/><path d="M13.23,15.4a.94.94,0,0,0,.68.28.92.92,0,0,0,.67-.28.94.94,0,0,0,0-1.35l-3.49-3.49a.94.94,0,0,0-1.35,0,1,1,0,0,0,0,1.35Z"/><path d="M19.77,10.58a1,1,0,0,0,.89.59A.92.92,0,0,0,21,11.1a1,1,0,0,0,.52-1.25L19.65,5.29A1,1,0,1,0,17.88,6Z"/><path d="M36.21,11.1a.92.92,0,0,0,.36.07,1,1,0,0,0,.89-.59L39.35,6a1,1,0,1,0-1.77-.73L35.69,9.85A1,1,0,0,0,36.21,11.1Z"/></g></g></svg>