<svg xmlns="http://www.w3.org/2000/svg" viewBox="0 0 56.83 43.16"><defs><style>.cls-1{fill:#231f20;}</style></defs><title>Asset 65</title><g id="Layer_2" data-name="Layer 2"><g id="Layer_1-2" data-name="Layer 1"><path class="cls-1" d="M37.21,18.84,24.76,12A2.54,2.54,0,0,0,21,14.26v13.5a2.53,2.53,0,0,0,2.53,2.54A2.59,2.59,0,0,0,24.75,30L37.19,23.3a2.53,2.53,0,0,0,0-4.46Zm-3.88,2.22-8.52,4.58V16.4Z"/><path class="cls-1" d="M56.16,10.32h0l.25,0v0c0-.47-.54-4.58-2.55-6.68A9.44,9.44,0,0,0,47.64.66l-.39,0C39.94.09,28.9,0,28.4,0S16.89.09,9.51.62l-.37,0A9.12,9.12,0,0,0,3,3.67C1,5.76.48,9.78.42,10.23v.08c0,.48-.41,4.87-.41,9.2v4.21C0,28.06.37,32.44.42,33S1,37.46,3,39.57a9.59,9.59,0,0,0,6.46,2.89,4.41,4.41,0,0,1,.52.07l.14,0c4.36.41,18.24.61,18.41.61s11.39-.07,18.83-.61h.11l.31,0a8.94,8.94,0,0,0,6.14-2.94c1.93-2.09,2.47-6.11,2.53-6.56v-.08c.07-.79.41-5,.41-9.2V19.51c0-4.33-.37-8.72-.41-9.2ZM53,19.51v4.21c0,4.24-.39,8.66-.4,8.84-.14,1-.69,3.49-1.56,4.43a5.19,5.19,0,0,1-3.73,1.73l-.35,0c-7.25.52-18,.6-18.5.6-.13,0-13.77-.21-18-.59-.21,0-.45-.07-.7-.1A5.94,5.94,0,0,1,5.72,37c-.8-.83-1.37-3.06-1.52-4.37,0-.19-.4-4.59-.4-8.86V19.51c0-4,.34-8.07.4-8.83.16-1.24.73-3.54,1.56-4.44a5.47,5.47,0,0,1,3.86-1.8l.22,0c7.35-.53,18.46-.6,18.57-.61s11.22.08,18.5.61l.3,0a5.74,5.74,0,0,1,3.9,1.77c.8.84,1.37,3.11,1.52,4.44C52.63,10.7,53,15.19,53,19.51Z"/></g></g></svg>