<svg xmlns="http://www.w3.org/2000/svg" viewBox="0 0 43.49 43.49"><defs><style>.cls-1{fill:#231f20;}</style></defs><title>Asset 66</title><g id="Layer_2" data-name="Layer 2"><g id="Layer_1-2" data-name="Layer 1"><path class="cls-1" d="M36.82,0H6.66A6.67,6.67,0,0,0,0,6.66V36.82a6.67,6.67,0,0,0,6.66,6.67H21v-16H16V23.32h5V16.66a5.84,5.84,0,0,1,5.83-5.83h5.84V15H28.07a2.91,2.91,0,0,0-2.91,2.91v5.41h7.2l-.7,4.18h-6.5v16H36.82a6.67,6.67,0,0,0,6.67-6.67V6.66A6.67,6.67,0,0,0,36.82,0Zm-.53,20h-7.8V18.33H36V7.5H26.82a9.17,9.17,0,0,0-9.16,9.16V20h-5V30.82h5v9.34h-11a3.34,3.34,0,0,1-3.33-3.34V6.66A3.33,3.33,0,0,1,6.66,3.33H36.82a3.34,3.34,0,0,1,3.34,3.33V36.82a3.35,3.35,0,0,1-3.34,3.34H28.49V30.82h6Z"/></g></g></svg>