<svg xmlns="http://www.w3.org/2000/svg" viewBox="0 0 43.51 43.51"><defs><style>.cls-1{fill:#231f20;}</style></defs><title>Asset 64</title><g id="Layer_2" data-name="Layer 2"><g id="Layer_1-2" data-name="Layer 1"><path class="cls-1" d="M31.5,0H12A12,12,0,0,0,0,12V31.5a12,12,0,0,0,12,12H31.5a12,12,0,0,0,12-12V12A12,12,0,0,0,31.5,0Zm8.15,31.5a8.16,8.16,0,0,1-8.15,8.15H12A8.16,8.16,0,0,1,3.86,31.5V12A8.15,8.15,0,0,1,12,3.86H31.5A8.16,8.16,0,0,1,39.65,12V31.5Z"/><path class="cls-1" d="M21.75,10.54A11.21,11.21,0,1,0,33,21.75,11.22,11.22,0,0,0,21.75,10.54Zm0,18.56a7.35,7.35,0,1,1,7.35-7.35A7.36,7.36,0,0,1,21.75,29.1Z"/><path class="cls-1" d="M33.43,7.27a2.83,2.83,0,0,0,0,5.66,2.83,2.83,0,1,0,0-5.66Z"/></g></g></svg>